<svg id="Capa_1" enable-background="new 0 0 512 512" height="512" viewBox="0 0 512 512" width="512" xmlns="http://www.w3.org/2000/svg"><g><path d="m107.386 42.544-22.554 22.554 42.242 70.526 70.526 42.241 22.553-22.553z" fill="#e1ebf0"/><path d="m62.279 87.651 42.241 70.526 70.526 42.242 22.554-22.554-112.768-112.767z" fill="#fff5f5"/><path d="m446.902 427.167 22.553-22.553-112.767-112.767-22.553 22.553 42.241 70.526z" fill="#b4d2d7"/><path d="m311.581 336.954 42.242 70.525 70.525 42.242 22.554-22.554-112.767-112.767z" fill="#e1ebf0"/><path d="m362.07 512 62.279-62.279-112.768-112.767-25.142 25.142c-22.97-16.922-47.593-37.734-73.197-63.337l-52.799 24.515-24.515 52.799c124.651 124.65 226.142 135.927 226.142 135.927z" fill="#c50048"/><path d="m149.905 225.56 25.142-25.142-112.768-112.767-62.279 62.279s11.277 101.491 135.928 226.142c0 0 .001 0 .001.001l77.314-77.314s0 0-.001-.001c-25.604-25.604-46.415-50.227-63.337-73.198z" fill="#ff415b"/><path d="m479.856 32.095-91.683 63.399-95.493 123.778v.049h109.66c60.563 0 109.66-49.097 109.66-109.66 0-30.295-12.285-57.72-32.144-77.566z" fill="#e1ebf0"/><path d="m402.34 0c-60.564 0-109.66 49.097-109.66 109.66v109.611l187.176-187.176c-19.842-19.831-47.247-32.095-77.516-32.095z" fill="#fff5f5"/><path d="m417.34 94.611-22.096 7.954-7.953 22.095h.049v43.475h30v-43.475h43.474v-30h-43.474z" fill="#00aa95"/><path d="m417.34 51.186h-30v43.474h-43.476v30h43.427l30.049-30.049z" fill="#00cc76"/></g></svg>